<svg id="圖層_2" data-name="圖層 2" xmlns="http://www.w3.org/2000/svg" viewBox="0 0 2671.81 1262.31"><defs><style>.cls-1,.cls-2{fill:none;stroke-linecap:round;stroke-miterlimit:10;stroke-width:40px;}.cls-1{stroke:#6b635c;}.cls-2{stroke:#e98943;}.cls-3{fill:#6b635c;}.cls-4{fill:#e98943;}</style></defs><path class="cls-1" d="M1106,292.22c-.85,4.93-4.79,24.24-22.59,38.4-20.23,16.1-43.15,13.43-48.28,12.69-26.83-3.87-41.22-23.67-44.61-28.5-17-24.23-12.27-50.95-11.11-57.51,6.8-38.16,39-58.87,47.25-64.18,60.12-38.68,135-6.27,145.13-1.7,51.86,23.42,77,65.75,87.53,84.14,24.85,43.26,28.2,83.36,29.93,107.3,8,110.59-44.41,200.52-69.66,238.31"/><path class="cls-2" d="M1442.81,1124.31c-1.14-209.88-.08-368.21-.28-443.6-.06-18.8-1.57-63.2,26.54-87.13,15.32-13.05,34.11-15.54,46-15.9l247.62.06"/><path class="cls-1" d="M2176.57,803.56c-7.15-1.84-51.48-12.46-92.61,15.25-6.52,4.39-43.08,30-46.91,71-2.7,28.85,11,63.78,28.84,87.72,8.13,10.92,17.09,19.52,14.12,26-3.81,8.25-22,1.91-47.44,9-6.59,1.85-32.16,9-45.74,28.8-20.35,29.68-2,70.69,0,75.11"/><path class="cls-1" d="M2547.09,770c-24,4.88-56.48,15.67-81,42.64-36.43,40-24.78,82.13-57.6,120.84-16.34,19.28-46.36,40.84-106.47,46.89"/><circle class="cls-3" cx="2003.73" cy="389.52" r="29.23"/><circle class="cls-3" cx="2153.23" cy="389.52" r="29.23"/><circle class="cls-3" cx="374.1" cy="461.04" r="29.23"/><circle class="cls-3" cx="520.27" cy="492.44" r="29.23"/><path class="cls-3" d="M2076.71,433.74c-14.37-1.22-22.72-16.79-19.79-23.31,4.5-10,39.91-8.46,43.37,1.63C2102.65,418.91,2092.1,435.06,2076.71,433.74Z"/><path class="cls-1" d="M1890.53,336.7c20.14,72.21,4,120.49-6.37,143.16-6.39,13.95-17.28,37.71-32.76,38.11-22.36.58-42.71-47.77-50.06-79.62-19.57-84.84,28.91-157.91,30.94-160.94,71.69-107,223.35-109.65,264.84-108.42,30,.89,167.48,5,238.44,105,37.26,52.55,39.68,107.76,38.78,133.28-.14,4.11-.36,7.53-.56,9.87-3.74,43.34-24.63,97.69-49.47,99.52-21.3,1.57-40.06-35.92-45.18-46.15-26.7-53.38-13.17-109.41-5.46-133.84"/><path class="cls-4" d="M1635.79,799.88c-54.3,17.18-69.75,94.86-44.71,119.77,31.34,31.16,142.46-4,150.17-47.51C1747.41,837.36,1690.09,782.7,1635.79,799.88Z"/><ellipse class="cls-4" cx="1535.6" cy="831.58" rx="29.52" ry="41.08" transform="translate(-147.26 1298.02) rotate(-43.93)"/><ellipse class="cls-4" cx="1734.63" cy="768.61" rx="41.08" ry="29.52" transform="translate(709.19 2364.91) rotate(-81.18)"/><ellipse class="cls-4" cx="1654.38" cy="728.4" rx="29.52" ry="41.08" transform="translate(-18.2 42.83) rotate(-1.48)"/><ellipse class="cls-4" cx="1577.57" cy="752.7" rx="29.52" ry="41.08" transform="translate(-152.8 999.86) rotate(-33.64)"/><path class="cls-2" d="M1915.6,595.81c-32.94,59.46-41.68,110.45-47.71,146.15-4.66,27.58-22.89,134.36,10,220.54,3.26,8.53,14,35.07,3,46.85s-33-2.37-59.67,12.09c-4.23,2.29-17.07,9.47-24.22,24.48-7.73,16.22-7.24,38.26,5.4,55.2,15.62,21,40.4,21.51,43.29,21.53h301.74a174.83,174.83,0,0,0,65.51-23.22c35.92-21.7,54-50.66,64.38-68,7.3-12.25,26.39-46.66,35.57-111.6,12.67-89.62-4.25-161.47-14.68-203.94a666.12,666.12,0,0,0-50.82-138.23"/><path class="cls-1" d="M659.09,581.59c22.88-25.18,61.15-61.3,116.62-89.38,33.14-16.77,107.92-53.37,202.89-40.07,119.4,16.73,192.45,103.08,229.29,146.58A480.58,480.58,0,0,1,1268,688.64"/><path class="cls-1" d="M172.37,611.4c15-70.95,31.09-129.47,44.08-172.62,18-59.86,42.87-132.57,91-208.1,37.3-58.52,53.48-63.66,61.83-60.6,12.15,4.46,17.94,30,29.35,80.5,7.71,34.06,7.15,43.51,16.14,50.66,16.66,13.25,33.13-7.65,63.78,1.4,28.92,8.55,31.75,32.3,50,30.3,17.07-1.87,19.33-23.21,51.35-58.12,19.83-21.62,36.36-39.64,48.6-35.3,14.87,5.27,14.36,40,19.49,120.88q7.51,95.39,17.65,193.1,1.92,18.35,3.9,36.58"/><path class="cls-2" d="M223,1123.19a1233.76,1233.76,0,0,1-58.59-248.47c-1.53-11.94-13.22-108.84,3.41-233.08,9.8-73.21,20.8-91.38,35.27-96.67,23.86-8.71,51.18,19.83,124,94.3C413.63,727.82,526.56,841.53,524.8,912c-.17,6.64-.32,25.53-12.7,42.59-2.87,4-19.4,25.73-47.93,26.53s-46.16-20-49.53-23.95c-14.75-17.37-16.43-37.62-17.06-45.17-6.12-73.28,120-220,120-220,70.51-81.66,106.31-122.31,133-113.78,26.88,8.59,27.81,54.55,41.79,120.84,9.61,45.61,40.27,200.26,135.3,303.09,20.77,22.48,123.28,133.27,254.91,119.88,10-1,57-6.51,106.16-38.4,86-55.82,108.44-147,113.94-171,3.11-13.57,35-164.16-68.2-264.95-12.71-12.41-77.48-75.64-172.8-70-11,.65-81.36,5.82-137.79,61.55C831.35,730.61,866.55,868.85,868.22,875"/></svg>